<svg width="121" height="38" fill="none" xmlns="http://www.w3.org/2000/svg"><path d="M45.725 27.1V11.784h4.8v1.776a2.714 2.714 0 0 1 1.127-1.44 4.453 4.453 0 0 1 2.338-.498 4.84 4.84 0 0 1 2.107.422c.52.229.953.622 1.229 1.12.347-.481.801-.874 1.327-1.149a4.85 4.85 0 0 1 2.18-.393 5.3 5.3 0 0 1 2.648.544 2.92 2.92 0 0 1 1.292 1.513c.25.716.369 1.471.351 2.23V27.1h-4.916V15.848c0-.988-.339-1.482-1.018-1.482-.3-.019-.595.078-.825.27a1.422 1.422 0 0 0-.4.67c-.073.26-.11.528-.11.798V27.1h-4.872V15.848a3.09 3.09 0 0 0-.162-.962.738.738 0 0 0-.804-.478 1.175 1.175 0 0 0-.853.295c-.202.2-.344.454-.411.73a3.466 3.466 0 0 0-.109.853v10.815h-4.919ZM73.08 27.262c-4.108 0-6.16-1.583-6.158-4.749v-6.146a4.17 4.17 0 0 1 1.636-3.454c1.088-.863 2.596-1.294 4.522-1.292 1.927.003 3.44.433 4.54 1.292a4.17 4.17 0 0 1 1.636 3.454v6.146c0 3.166-2.058 4.75-6.176 4.75Zm0-2.808a1.078 1.078 0 0 0 .889-.33c.184-.24.279-.539.266-.842v-7.494c0-.895-.382-1.338-1.155-1.338-.772 0-1.155.443-1.155 1.338v7.48c-.011.303.084.602.27.842a1.075 1.075 0 0 0 .885.334v.01ZM89.312 27.262a3.863 3.863 0 0 1-1.97-.442 3.16 3.16 0 0 1-1.207-1.355v1.636h-5.007V9.129h5.007v4.29a3.31 3.31 0 0 1 1.257-1.324 4.59 4.59 0 0 1 2.303-.474c1.348 0 2.3.351 2.854 1.092.588.834.88 1.839.832 2.857v7.536a5.05 5.05 0 0 1-.431 2.106 3.338 3.338 0 0 1-1.335 1.489 4.38 4.38 0 0 1-2.303.561Zm-2.036-2.85c.524 0 .84-.19.948-.569.118-.458.174-.93.165-1.404v-5.967a5.181 5.181 0 0 0-.165-1.404c-.11-.379-.422-.568-.934-.568-.513 0-.857.193-.976.579-.13.456-.19.93-.18 1.404v5.967c-.01.474.05.947.18 1.404.119.368.439.558.962.558ZM95.169 10.846V7.802h4.915v3.044h-4.915Zm0 16.255V11.783h4.915V27.1h-4.915ZM102.047 27.1V9.13h5.007V27.1h-5.007ZM114.81 27.262a8.327 8.327 0 0 1-3.511-.614 3.773 3.773 0 0 1-1.872-1.755 6.278 6.278 0 0 1-.561-2.777V15.95a3.624 3.624 0 0 1 1.65-3.232c1.098-.73 2.61-1.096 4.536-1.096 3.961 0 5.941 1.443 5.941 4.328v1.113c0 1.348-.017 2.253-.053 2.717h-7.148v2.959c-.002.27.022.538.07.803.036.242.143.467.309.646a1.005 1.005 0 0 0 .776.256c.513 0 .836-.165.962-.494.143-.416.208-.853.193-1.292v-1.47h4.895v.866a6.495 6.495 0 0 1-.569 2.875 3.677 3.677 0 0 1-1.924 1.755 9.534 9.534 0 0 1-3.694.58Zm-1.053-9.302h2.338v-2.063a1.99 1.99 0 0 0-.274-1.187.969.969 0 0 0-.825-.35 1.19 1.19 0 0 0-.916.35 1.77 1.77 0 0 0-.323 1.204v2.046Z" fill="#5984C0"/><path d="M7.2 27.83V8.597h7.023c1.884 0 3.256.34 4.115 1.021.86.681 1.289 1.804 1.289 3.37v.842a3.481 3.481 0 0 1-.653 2.197 3.199 3.199 0 0 1-1.998 1.106c1.17.218 1.953.729 2.349 1.534a6.62 6.62 0 0 1 .597 2.945 10.318 10.318 0 0 1-.471 3.271 4.005 4.005 0 0 1-1.71 2.173c-.822.52-1.998.776-3.511.776H7.2Zm5.053-12.004h1.053c.482 0 .79-.136.931-.414.144-.312.213-.653.204-.997v-1.934c0-.617-.369-.93-1.103-.93h-1.085v4.275Zm.516 8.604c1.346 0 2.02-.474 2.02-1.422v-2.404a2.225 2.225 0 0 0-.334-1.296c-.223-.316-.637-.474-1.243-.474h-.959v5.574c.234.014.41.021.527.021h-.01ZM27.727 27.992c-1.573 0-2.825-.219-3.757-.656a4.047 4.047 0 0 1-2.001-1.889 6.703 6.703 0 0 1-.604-2.973v-6.577a3.891 3.891 0 0 1 1.755-3.461c1.17-.782 2.79-1.174 4.86-1.176 4.241 0 6.362 1.545 6.362 4.637v1.19c0 1.443-.02 2.413-.06 2.91H26.65v3.158c0 .287.024.574.074.857.043.264.165.509.35.702a1.098 1.098 0 0 0 .833.274c.548 0 .892-.18 1.029-.53.152-.445.222-.914.207-1.383v-1.576h5.242v.93a6.94 6.94 0 0 1-.61 3.078 3.932 3.932 0 0 1-2.062 1.867c-.99.415-2.319.62-3.985.618Zm-1.12-9.958h2.5v-2.208a2.14 2.14 0 0 0-.295-1.274 1.055 1.055 0 0 0-.885-.386 1.27 1.27 0 0 0-.98.372c-.269.373-.394.83-.35 1.288l.01 2.208Z" fill="#fff"/><path d="M35.28 1H5.974A4.975 4.975 0 0 0 1 5.974v25.212a4.974 4.974 0 0 0 4.975 4.974H35.28a4.974 4.974 0 0 0 4.975-4.974V5.974A4.974 4.974 0 0 0 35.28 1Z" stroke="#5984C0" stroke-width="1.99" stroke-miterlimit="10"/></svg>