<svg width="121" height="38" viewBox="0 0 121 38" fill="none" xmlns="http://www.w3.org/2000/svg">
<path d="M45.725 27.1007V11.7829H50.5247V13.5589C50.7226 12.9634 51.1209 12.4548 51.6518 12.1198C52.3712 11.7436 53.1798 11.5713 53.9902 11.6214C54.7151 11.6022 55.4351 11.7462 56.0969 12.0426C56.6178 12.2716 57.0495 12.6649 57.3258 13.1623C57.6727 12.6816 58.1272 12.2886 58.653 12.0145C59.3397 11.717 60.086 11.5825 60.8334 11.6214C61.7481 11.5709 62.6602 11.7584 63.4808 12.1655C64.0753 12.503 64.5325 13.0384 64.7729 13.6783C65.0227 14.3942 65.1417 15.1492 65.124 15.9072V27.1007H60.2084V15.8475C60.2084 14.86 59.869 14.3663 59.1902 14.3663C58.8906 14.3471 58.5952 14.4439 58.3651 14.6365C58.1717 14.8183 58.033 15.0505 57.9648 15.3069C57.8922 15.5663 57.8556 15.8344 57.8559 16.1037V27.1007H52.9825V15.8475C52.9799 15.5204 52.9254 15.1957 52.821 14.8857C52.7628 14.7255 52.6509 14.5904 52.5043 14.5033C52.3577 14.4163 52.1855 14.3827 52.0169 14.4084C51.8623 14.3989 51.7073 14.4201 51.5609 14.4707C51.4145 14.5213 51.2795 14.6003 51.1637 14.7032C50.9618 14.9039 50.8196 15.1566 50.7529 15.4333C50.6814 15.712 50.6448 15.9985 50.6441 16.2862V27.1007H45.725Z" fill="#5984C0"/>
<path d="M73.0802 27.2621C68.9722 27.2621 66.9193 25.679 66.9217 22.513V16.3669C66.8993 15.7025 67.0361 15.0424 67.3207 14.4416C67.6053 13.8408 68.0295 13.3167 68.5579 12.913C69.6463 12.0496 71.1538 11.619 73.0802 11.6213C75.0067 11.6237 76.52 12.0542 77.6201 12.913C78.1485 13.3167 78.5727 13.8408 78.8573 14.4416C79.1419 15.0424 79.2787 15.7025 79.2563 16.3669V22.513C79.2563 25.679 77.1976 27.2621 73.0802 27.2621ZM73.0802 24.454C73.2436 24.4703 73.4086 24.4491 73.5626 24.3919C73.7165 24.3347 73.8554 24.2431 73.9685 24.1241C74.1535 23.8832 74.248 23.5851 74.2354 23.2817V15.7878C74.2354 14.8927 73.8527 14.4504 73.0802 14.4504C72.3078 14.4504 71.9251 14.8927 71.9251 15.7878V23.2676C71.9135 23.5715 72.0092 23.8697 72.1954 24.11C72.3077 24.2294 72.4458 24.3215 72.5991 24.3793C72.7525 24.4371 72.9171 24.4591 73.0802 24.4435V24.454Z" fill="#5984C0"/>
<path d="M89.3121 27.2621C88.6279 27.2919 87.9481 27.1392 87.3424 26.8198C86.8159 26.496 86.396 26.025 86.1346 25.465V27.1006H81.1277V9.12927H86.1346V13.4185C86.4213 12.8684 86.8568 12.4099 87.3916 12.0952C88.1051 11.74 88.8989 11.5767 89.6949 11.6214C91.0431 11.6214 91.9946 11.9724 92.5494 12.713C93.1367 13.5465 93.4294 14.5518 93.3815 15.5702V23.1062C93.3904 23.8311 93.2431 24.5493 92.9497 25.2122C92.6674 25.8329 92.2018 26.3523 91.6154 26.7005C90.914 27.0959 90.117 27.2902 89.3121 27.2621ZM87.2757 24.412C87.8 24.412 88.116 24.2224 88.2237 23.8433C88.3421 23.385 88.3976 22.9126 88.3887 22.4393V16.4723C88.3981 15.9989 88.3426 15.5265 88.2237 15.0682C88.1148 14.6892 87.8024 14.4996 87.2897 14.4996C86.7771 14.4996 86.433 14.6927 86.3136 15.0788C86.1843 15.5352 86.1239 16.0085 86.1346 16.4828V22.4498C86.1242 22.9241 86.1845 23.3973 86.3136 23.8539C86.433 24.2224 86.7525 24.412 87.2757 24.412Z" fill="#5984C0"/>
<path d="M95.1687 10.8456V7.80243H100.084V10.8456H95.1687ZM95.1687 27.1006V11.7828H100.084V27.1006H95.1687Z" fill="#5984C0"/>
<path d="M102.047 27.1006V9.12927H107.054V27.1006H102.047Z" fill="#5984C0"/>
<path d="M114.81 27.2621C113.609 27.3131 112.411 27.1036 111.299 26.6478C110.489 26.2995 109.827 25.6785 109.427 24.8928C109.031 24.0222 108.839 23.0725 108.866 22.1164V15.9492C108.833 15.3131 108.968 14.6795 109.258 14.1121C109.548 13.5447 109.981 13.0634 110.516 12.7165C111.614 11.9864 113.126 11.6214 115.052 11.6214C119.013 11.6214 120.993 13.064 120.993 15.9492V17.0619C120.993 18.4098 120.976 19.3154 120.94 19.7787H113.792V22.7376C113.79 23.0072 113.814 23.2762 113.862 23.5414C113.898 23.7829 114.005 24.0079 114.171 24.1873C114.275 24.2816 114.398 24.3531 114.532 24.3972C114.665 24.4414 114.807 24.4571 114.947 24.4435C115.46 24.4435 115.783 24.2785 115.909 23.9486C116.052 23.5335 116.117 23.0957 116.102 22.6569V21.1862H120.997V22.0532C121.029 23.0422 120.834 24.0255 120.428 24.9279C120.022 25.728 119.338 26.3523 118.504 26.6829C117.323 27.1179 116.067 27.3148 114.81 27.2621ZM113.757 17.9605H116.095V15.8966C116.13 15.4822 116.034 15.0673 115.821 14.7102C115.722 14.59 115.595 14.4954 115.451 14.4344C115.308 14.3733 115.152 14.3475 114.996 14.3592C114.827 14.3492 114.658 14.3754 114.5 14.4359C114.342 14.4964 114.199 14.5899 114.08 14.7102C113.83 15.0592 113.715 15.487 113.757 15.9141V17.9605Z" fill="#5984C0"/>
<path d="M7.20068 27.8307V8.5957H14.223C16.1073 8.5957 17.4789 8.93618 18.338 9.61712C19.1971 10.2981 19.6266 11.4213 19.6266 12.9868V13.8292C19.6632 14.6143 19.433 15.3887 18.9735 16.0264C18.4663 16.6282 17.755 17.0218 16.9757 17.1321C18.1461 17.3497 18.929 17.861 19.3246 18.666C19.7466 19.589 19.9509 20.5965 19.9215 21.6109C19.9415 22.7195 19.7826 23.8241 19.451 24.8823C19.1571 25.7864 18.551 26.5566 17.7411 27.055C16.9195 27.5744 15.7433 27.8307 14.23 27.8307H7.20068ZM12.2532 15.8264H13.3065C13.7876 15.8264 14.0966 15.6895 14.237 15.4122C14.3806 15.1 14.4503 14.7589 14.4406 14.4153V12.4813C14.4406 11.8635 14.072 11.5512 13.3381 11.5512H12.2532V15.8264ZM12.7693 24.4295C14.1153 24.4295 14.7882 23.9556 14.7882 23.0079V20.6035C14.8125 20.1478 14.6961 19.6957 14.4547 19.3083C14.2323 18.9924 13.818 18.8345 13.2117 18.8345H12.2532V24.4084C12.4873 24.4224 12.6628 24.4295 12.7799 24.4295H12.7693Z" fill="white"/>
<path d="M27.7269 27.9922C26.1539 27.9922 24.9016 27.7734 23.97 27.3358C23.1028 26.9593 22.3947 26.2912 21.9687 25.4474C21.5428 24.5156 21.3362 23.4985 21.3647 22.4744V15.8966C21.329 15.2166 21.4723 14.5392 21.7804 13.9319C22.0884 13.3246 22.5505 12.8087 23.1203 12.4357C24.2907 11.6542 25.9105 11.2622 27.9797 11.2599C32.2212 11.2599 34.3419 12.8054 34.3419 15.8966V17.0865C34.3419 18.5303 34.322 19.5002 34.2822 19.9963H26.649V23.1554C26.6487 23.4424 26.6734 23.729 26.7227 24.0118C26.7659 24.276 26.8883 24.5208 27.0739 24.7138C27.1864 24.8141 27.3183 24.8901 27.4615 24.9372C27.6046 24.9843 27.7559 25.0014 27.906 24.9876C28.4537 24.9876 28.7978 24.8086 28.9348 24.4576C29.0867 24.0129 29.1569 23.5443 29.1419 23.0746V21.4986H34.384V22.4288C34.4181 23.4881 34.2091 24.5411 33.7731 25.5071C33.3366 26.3598 32.6037 27.0238 31.7121 27.3744C30.7219 27.7886 29.3935 27.9945 27.7269 27.9922ZM26.6069 18.0342H29.1068V15.8264C29.1438 15.3813 29.0407 14.9358 28.8119 14.5523C28.7058 14.4221 28.5702 14.3191 28.4163 14.2519C28.2624 14.1848 28.0946 14.1554 27.9271 14.1662C27.7467 14.155 27.566 14.1824 27.3971 14.2466C27.2282 14.3107 27.0749 14.4102 26.9474 14.5382C26.678 14.9108 26.5532 15.3687 26.5963 15.8264L26.6069 18.0342Z" fill="white"/>
<path d="M35.2792 1H5.97528C3.22751 1 1 3.22681 1 5.97372V31.1863C1 33.9332 3.22751 36.16 5.97528 36.16H35.2792C38.027 36.16 40.2545 33.9332 40.2545 31.1863V5.97372C40.2545 3.22681 38.027 1 35.2792 1Z" stroke="#5984C0" stroke-width="1.99" stroke-miterlimit="10"/>
</svg>
