<svg width="129" height="46" viewBox="0 0 129 46" fill="none" xmlns="http://www.w3.org/2000/svg">
<g filter="url(#filter0_d_16_76)">
<path d="M49.725 27.1007V11.7829H54.5247V13.5589C54.7226 12.9634 55.1209 12.4548 55.6518 12.1198C56.3712 11.7436 57.1798 11.5713 57.9902 11.6214C58.7151 11.6022 59.4351 11.7462 60.0969 12.0426C60.6178 12.2716 61.0495 12.6649 61.3258 13.1623C61.6727 12.6816 62.1272 12.2886 62.653 12.0145C63.3397 11.717 64.086 11.5825 64.8334 11.6214C65.7481 11.5709 66.6602 11.7584 67.4808 12.1655C68.0753 12.503 68.5325 13.0384 68.7729 13.6783C69.0227 14.3942 69.1417 15.1492 69.124 15.9072V27.1007H64.2084V15.8475C64.2084 14.86 63.869 14.3663 63.1902 14.3663C62.8906 14.3471 62.5952 14.4439 62.3651 14.6365C62.1717 14.8183 62.033 15.0505 61.9648 15.3069C61.8922 15.5663 61.8556 15.8344 61.8559 16.1037V27.1007H56.9825V15.8475C56.9799 15.5204 56.9254 15.1957 56.821 14.8857C56.7628 14.7255 56.6509 14.5904 56.5043 14.5033C56.3577 14.4163 56.1855 14.3827 56.0169 14.4084C55.8623 14.3989 55.7073 14.4201 55.5609 14.4707C55.4145 14.5213 55.2795 14.6003 55.1637 14.7032C54.9618 14.9039 54.8196 15.1566 54.7529 15.4333C54.6814 15.712 54.6448 15.9985 54.6441 16.2862V27.1007H49.725Z" fill="#5984C0"/>
<path d="M77.0802 27.2621C72.9722 27.2621 70.9193 25.679 70.9217 22.513V16.3669C70.8993 15.7025 71.0361 15.0424 71.3207 14.4416C71.6053 13.8408 72.0295 13.3167 72.5579 12.913C73.6463 12.0496 75.1538 11.619 77.0802 11.6213C79.0067 11.6237 80.52 12.0542 81.6201 12.913C82.1485 13.3167 82.5727 13.8408 82.8573 14.4416C83.1419 15.0424 83.2787 15.7025 83.2563 16.3669V22.513C83.2563 25.679 81.1976 27.2621 77.0802 27.2621ZM77.0802 24.454C77.2436 24.4703 77.4086 24.4491 77.5626 24.3919C77.7165 24.3347 77.8554 24.2431 77.9685 24.1241C78.1535 23.8832 78.248 23.5851 78.2354 23.2817V15.7878C78.2354 14.8927 77.8527 14.4504 77.0802 14.4504C76.3078 14.4504 75.9251 14.8927 75.9251 15.7878V23.2676C75.9135 23.5715 76.0092 23.8697 76.1954 24.11C76.3077 24.2294 76.4458 24.3215 76.5991 24.3793C76.7525 24.4371 76.9171 24.4591 77.0802 24.4435V24.454Z" fill="#5984C0"/>
<path d="M93.3121 27.2621C92.6279 27.2919 91.9481 27.1392 91.3424 26.8198C90.8159 26.496 90.396 26.025 90.1346 25.465V27.1006H85.1277V9.12927H90.1346V13.4185C90.4213 12.8684 90.8568 12.4099 91.3916 12.0952C92.1051 11.74 92.8989 11.5767 93.6949 11.6214C95.0431 11.6214 95.9946 11.9724 96.5494 12.713C97.1367 13.5465 97.4294 14.5518 97.3815 15.5702V23.1062C97.3904 23.8311 97.2431 24.5493 96.9497 25.2122C96.6674 25.8329 96.2018 26.3523 95.6154 26.7005C94.914 27.0959 94.117 27.2902 93.3121 27.2621ZM91.2757 24.412C91.8 24.412 92.116 24.2224 92.2237 23.8433C92.3421 23.385 92.3976 22.9126 92.3887 22.4393V16.4723C92.3981 15.9989 92.3426 15.5265 92.2237 15.0682C92.1148 14.6892 91.8024 14.4996 91.2897 14.4996C90.7771 14.4996 90.433 14.6927 90.3136 15.0788C90.1843 15.5352 90.1239 16.0085 90.1346 16.4828V22.4498C90.1242 22.9241 90.1845 23.3973 90.3136 23.8539C90.433 24.2224 90.7525 24.412 91.2757 24.412Z" fill="#5984C0"/>
<path d="M99.1687 10.8456V7.80243H104.084V10.8456H99.1687ZM99.1687 27.1006V11.7828H104.084V27.1006H99.1687Z" fill="#5984C0"/>
<path d="M106.047 27.1006V9.12927H111.054V27.1006H106.047Z" fill="#5984C0"/>
<path d="M118.81 27.2621C117.609 27.3131 116.411 27.1036 115.299 26.6478C114.489 26.2995 113.827 25.6785 113.427 24.8928C113.031 24.0222 112.839 23.0725 112.866 22.1164V15.9492C112.833 15.3131 112.968 14.6795 113.258 14.1121C113.548 13.5447 113.981 13.0634 114.516 12.7165C115.614 11.9864 117.126 11.6214 119.052 11.6214C123.013 11.6214 124.993 13.064 124.993 15.9492V17.0619C124.993 18.4098 124.976 19.3154 124.94 19.7787H117.792V22.7376C117.79 23.0072 117.814 23.2762 117.862 23.5414C117.898 23.7829 118.005 24.0079 118.171 24.1873C118.275 24.2816 118.398 24.3531 118.532 24.3972C118.665 24.4414 118.807 24.4571 118.947 24.4435C119.46 24.4435 119.783 24.2785 119.909 23.9486C120.052 23.5335 120.117 23.0957 120.102 22.6569V21.1862H124.997V22.0532C125.029 23.0422 124.834 24.0255 124.428 24.9279C124.022 25.728 123.338 26.3523 122.504 26.6829C121.323 27.1179 120.067 27.3148 118.81 27.2621ZM117.757 17.9605H120.095V15.8966C120.13 15.4822 120.034 15.0673 119.821 14.7102C119.722 14.59 119.595 14.4954 119.451 14.4344C119.308 14.3733 119.152 14.3475 118.996 14.3592C118.827 14.3492 118.658 14.3754 118.5 14.4359C118.342 14.4964 118.199 14.5899 118.08 14.7102C117.83 15.0592 117.715 15.487 117.757 15.9141V17.9605Z" fill="#5984C0"/>
<path d="M11.2007 27.8307V8.5957H18.223C20.1073 8.5957 21.4789 8.93618 22.338 9.61712C23.1971 10.2981 23.6266 11.4213 23.6266 12.9868V13.8292C23.6632 14.6143 23.433 15.3887 22.9735 16.0264C22.4663 16.6282 21.755 17.0218 20.9757 17.1321C22.1461 17.3497 22.929 17.861 23.3246 18.666C23.7466 19.589 23.9509 20.5965 23.9215 21.6109C23.9415 22.7195 23.7826 23.8241 23.451 24.8823C23.1571 25.7864 22.551 26.5566 21.7411 27.055C20.9195 27.5744 19.7433 27.8307 18.23 27.8307H11.2007ZM16.2532 15.8264H17.3065C17.7876 15.8264 18.0966 15.6895 18.237 15.4122C18.3806 15.1 18.4503 14.7589 18.4406 14.4153V12.4813C18.4406 11.8635 18.072 11.5512 17.3381 11.5512H16.2532V15.8264ZM16.7693 24.4295C18.1153 24.4295 18.7882 23.9556 18.7882 23.0079V20.6035C18.8125 20.1478 18.6961 19.6957 18.4547 19.3083C18.2323 18.9924 17.818 18.8345 17.2117 18.8345H16.2532V24.4084C16.4873 24.4224 16.6628 24.4295 16.7799 24.4295H16.7693Z" fill="white"/>
<path d="M31.7269 27.9922C30.1539 27.9922 28.9016 27.7734 27.97 27.3358C27.1028 26.9593 26.3947 26.2912 25.9687 25.4474C25.5428 24.5156 25.3362 23.4985 25.3647 22.4744V15.8966C25.329 15.2166 25.4723 14.5392 25.7804 13.9319C26.0884 13.3246 26.5505 12.8087 27.1203 12.4357C28.2907 11.6542 29.9105 11.2622 31.9797 11.2599C36.2212 11.2599 38.3419 12.8054 38.3419 15.8966V17.0865C38.3419 18.5303 38.322 19.5002 38.2822 19.9963H30.649V23.1554C30.6487 23.4424 30.6734 23.729 30.7227 24.0118C30.7659 24.276 30.8883 24.5208 31.0739 24.7138C31.1864 24.8141 31.3183 24.8901 31.4615 24.9372C31.6046 24.9843 31.7559 25.0014 31.906 24.9876C32.4537 24.9876 32.7978 24.8086 32.9348 24.4576C33.0867 24.0129 33.1569 23.5443 33.1419 23.0746V21.4986H38.384V22.4288C38.4181 23.4881 38.2091 24.5411 37.7731 25.5071C37.3366 26.3598 36.6037 27.0238 35.7121 27.3744C34.7219 27.7886 33.3935 27.9945 31.7269 27.9922ZM30.6069 18.0342H33.1068V15.8264C33.1438 15.3813 33.0407 14.9358 32.8119 14.5523C32.7058 14.4221 32.5702 14.3191 32.4163 14.2519C32.2624 14.1848 32.0946 14.1554 31.9271 14.1662C31.7467 14.155 31.566 14.1824 31.3971 14.2466C31.2282 14.3107 31.0749 14.4102 30.9474 14.5382C30.678 14.9108 30.5532 15.3687 30.5963 15.8264L30.6069 18.0342Z" fill="white"/>
<path d="M39.2792 1H9.97528C7.22751 1 5 3.22681 5 5.97372V31.1863C5 33.9332 7.22751 36.16 9.97528 36.16H39.2792C42.027 36.16 44.2545 33.9332 44.2545 31.1863V5.97372C44.2545 3.22681 42.027 1 39.2792 1Z" stroke="#5984C0" stroke-width="1.99" stroke-miterlimit="10"/>
</g>
<defs>
<filter id="filter0_d_16_76" x="0.00500488" y="0.00500488" width="128.995" height="45.15" filterUnits="userSpaceOnUse" color-interpolation-filters="sRGB">
<feFlood flood-opacity="0" result="BackgroundImageFix"/>
<feColorMatrix in="SourceAlpha" type="matrix" values="0 0 0 0 0 0 0 0 0 0 0 0 0 0 0 0 0 0 127 0" result="hardAlpha"/>
<feOffset dy="4"/>
<feGaussianBlur stdDeviation="2"/>
<feComposite in2="hardAlpha" operator="out"/>
<feColorMatrix type="matrix" values="0 0 0 0 0 0 0 0 0 0 0 0 0 0 0 0 0 0 0.25 0"/>
<feBlend mode="normal" in2="BackgroundImageFix" result="effect1_dropShadow_16_76"/>
<feBlend mode="normal" in="SourceGraphic" in2="effect1_dropShadow_16_76" result="shape"/>
</filter>
</defs>
</svg>
